<svg xmlns="http://www.w3.org/2000/svg" viewBox="0 0 256 256" fill="none">
  <g stroke="#001e40" stroke-linecap="round" stroke-linejoin="round">
    <circle cx="128" cy="128" r="112" stroke-width="8" />
    <circle cx="128" cy="128" r="88" stroke-width="10" stroke-dasharray="182 98 114 76" transform="rotate(-18 128 128)" />
    <circle cx="128" cy="128" r="66" stroke-width="10" stroke-dasharray="118 76 92 64" transform="rotate(22 128 128)" />
    <circle cx="128" cy="128" r="46" stroke-width="10" stroke-dasharray="74 48 58 40" transform="rotate(-36 128 128)" />
    <path d="M169 109h53" stroke-width="10" />
    <path d="M168 128h38" stroke-width="10" />
    <path d="M168 147h24" stroke-width="10" />
    <path d="M38 103c11-26 33-46 60-56" stroke-width="10" />
    <path d="M34 151c0-17 4-34 12-48" stroke-width="10" />
    <path d="M57 191c-13-13-21-31-23-49" stroke-width="10" />
    <path d="M190 58c14 8 25 19 34 33" stroke-width="10" />
    <path d="M212 176c8-14 12-30 12-46" stroke-width="10" />
  </g>
  <circle cx="128" cy="128" r="10" fill="#001e40" />
</svg>
