<svg width="876" height="581" viewBox="0 0 876 581" fill="none" xmlns="http://www.w3.org/2000/svg">
<path d="M412.185 1.33647C472.87 -5.26409 553.174 13.4696 608.466 38.0484C698.661 78.138 778.915 151.384 840.059 227.857C850.224 240.57 868.578 262.562 873.922 277.338C877.555 287.383 876.2 298.431 871.603 307.921C863.042 325.607 843.159 348.047 830.142 363.82C757.636 451.669 667.532 523.617 559.466 561.931C531.579 571.688 502.553 577.796 473.103 580.123C468.166 580.555 457.285 582.226 452.979 579.359C451.408 578.312 450.112 576.599 450.203 574.597C450.311 572.336 451.059 570.873 452.805 569.51C457.709 565.654 484.898 555.141 493.576 550.545C519.734 536.682 543.814 515.788 564.445 494.695C571.718 487.265 577.844 477.923 586.065 471.565C598.508 461.95 615.573 454.952 629.271 446.749C656.02 430.725 681.496 411.569 705.036 391.165C720.538 377.726 792.846 306.536 793.286 292.603C793.411 288.665 791.848 284.98 789.787 281.701C786.055 275.758 780.594 270.645 776.047 265.285C764.269 251.391 752.598 237.473 740.047 224.264C716.59 199.588 683.907 169.234 654.731 151.757C638.672 142.143 621.192 135.037 605.282 125.353C594.269 118.653 584.785 109.202 573.954 102.031C535.909 76.8349 489.943 59.3769 444.11 58.3164C393.565 57.147 347.951 72.4168 306.227 100.406C295.155 107.834 285.095 117.023 273.687 123.882C261.871 130.987 248.793 136.187 236.755 143.038C205.919 160.593 180.195 182.064 154.59 206.473C136.476 223.974 119.209 242.331 102.847 261.48C94.4962 271.122 75.178 288.469 85.6272 301.475C139.302 368.283 203.468 428.947 282.276 464.759C289.42 468 296.91 473.003 304.609 475.305C362.764 485.852 437.344 450.988 474.433 411.785C502.27 382.522 517.34 343.394 516.309 303.018C515.487 277.917 506.36 252.673 487.624 235.427C473.884 222.779 455.88 213.566 436.829 214.608C422.981 215.366 409.192 220.954 398.208 229.337C353.643 263.35 370.737 312.648 358.322 324.574C356.411 326.408 353.969 327.431 351.3 327.277C348.681 327.127 346.277 325.847 344.564 323.891C342.241 321.239 341.842 317.718 342.003 314.321C343.681 278.938 350.743 243.279 377.973 218.308C395.331 202.389 421.094 193.444 444.567 194.613C468.448 195.802 491.839 208.702 507.681 226.292C530.041 251.11 538.403 285.129 536.458 317.89C531.354 403.407 463.926 465.964 385.062 488.046C374.08 491.121 362.647 493.889 351.416 495.817C345.317 496.864 338.985 496.856 332.949 498.21C330.776 498.701 328.523 499.457 326.962 501.119C325.419 502.773 324.633 504.951 324.655 507.195C324.684 509.987 325.832 512.771 327.899 514.666C331.555 518.024 338.091 517.808 342.757 517.608C354.447 517.118 366.261 514.417 377.627 511.716C425.948 500.23 470.634 477.408 504.556 440.466C539.716 402.169 559.533 351.944 556.914 299.718C555.243 266.379 542.393 229.543 516.925 206.902C494.066 186.592 463.835 174.797 433.147 176.647C402.493 178.339 373.767 192.133 353.284 214.996C329.202 242.235 318.51 277.055 318.998 313.031C319.66 361.794 383.137 354.726 388.471 313.105C389.923 301.77 387.675 291.182 388.243 279.924C390.396 237.2 440.885 219.441 471.856 246.842C487.159 260.381 492.204 275.837 493.842 295.616C501.481 387.882 419.972 450.223 334.028 454.628C301.77 458.808 273.296 434.64 253.112 412.35C214.739 369.967 210.933 304.476 221.231 250.753C225.434 228.832 236.329 204.404 248.178 185.656C254.487 176.326 262.344 167.389 269.251 158.549C321.047 92.2616 413.724 61.5194 494.823 84.5075C532.568 95.2062 558.169 113.377 586.721 138.814C589.863 141.827 592.939 144.909 595.948 148.059C639.005 193.346 662.387 253.839 660.974 316.312C659.86 351.181 648.531 392.769 629.363 423.162C627.044 426.836 619.829 427.634 617.144 424.16C610.835 416.007 618.183 402.809 621.898 394.465C629.612 377.103 632.422 361.777 635.796 343.367C651.307 258.791 614.526 180.376 546.083 130.904C463.386 71.1244 347.142 93.18 284.313 170.586C277.711 178.726 270.412 186.024 264.794 195.163C244.504 228.166 236.154 266.732 236.68 305.187C237.703 337.847 246.523 376.671 269.746 400.981C278.015 409.641 305.95 432.728 317.049 433.909C350.718 437.482 394.912 420.536 422.973 402.693C460.352 378.932 484.782 322.513 470.185 279.551C466.013 268.166 457.11 256.564 444.576 255.134C401.664 250.236 410.152 287.609 408.878 315.095C408.197 329.795 396.219 347.528 384.489 356.551C372.355 365.996 356.897 370.091 341.677 367.895C303.084 362.684 294.527 323.233 299.01 290.703C310.15 209.849 374.384 144.051 459.903 157.796C495.13 163.206 526.65 182.697 547.222 211.796C576.074 251.927 581.393 294.663 574.428 343.13C560.829 437.732 483.069 503.621 394.955 528.471C386.493 530.856 354.151 533.815 367.761 549.489C373.699 556.337 399.438 547.071 407.376 545.234C518.703 514.226 603.479 417.353 597.66 298.211C595.325 250.328 575.683 208.908 540.805 175.871C481.232 119.925 376.321 126.364 322.427 186.948C294.187 218.694 275.613 274.287 277.561 316.727C279.001 348.12 293.007 363.688 315.814 383.021C324.938 390.849 330.706 393.575 342.756 392.42C391.408 387.766 433.67 350.005 431.418 298.909C431.434 289.949 424.735 272.103 441.093 274.248C457.759 276.432 450.935 315.738 448.881 326.156C437.968 381.392 375.156 422.705 320.46 410.206C306.111 406.923 274.824 374.417 268.416 360.942C250.396 323.048 257.66 278.403 270.14 239.918C284.748 194.607 316.736 156.94 359.086 135.183C399.014 115.046 451.134 111.704 493.85 125.481C540.332 140.469 577.046 178.709 598.957 221.367C622.239 266.68 623.677 334.834 607.41 382.755C583.023 454.586 534.787 509.729 467.168 543.738C452.813 551.392 437.037 555.756 422.241 562.363C412.447 566.726 415.58 573.907 420.304 580.514C393.738 579.566 367.35 575.785 341.585 569.253C269.593 550.777 193.802 505.965 137.35 458.268C119.952 443.491 103.334 427.825 87.5639 411.328C64.0497 386.744 42.168 360.656 22.0576 333.22C10.0117 316.79 -8.50522 294.265 4.36778 272.527C18.7045 248.32 39.3502 222.455 58.0392 201.195C150.894 95.5695 268.137 11.7609 412.185 1.33647Z" fill="black"/>
</svg>
